# xmcd
#
# Track frame offsets:
#	150
#	12608
#	25735
#	37797
#	49895
#	61278
#	74776
#	86490
#	96816
#	110048
#	127968
#	139015
#	150503
#	160317
#	172195
#	182759
#	193427
#	204228
#	216894
#	228570
#	239813
#	251340
#	264410
#	282802
#	292138
#	306952
#	317548
#	330579
#	339957
#
# Disc length: 4667 seconds
#
# Revision: 1
# Processed by: cddbd v1.5.2PL0 Copyright (c) Steve Scherf et al.
# Submitted via: audiograbber 1.83.01
#
DISCID=b312391d
DTITLE=Oberkärntner Sextett - Obervellacher Buam - Jo, die Kärntna san do
DYEAR=1900
DGENRE=
TTITLE0=Jo, die Kärntna san do - Oberkärntner Sextett
TTITLE1=Hörst du die Harmonika - Oberkärntner Sextett
TTITLE2=Gruß an Rankweil - Oberkärntner Sextett
TTITLE3=Musikantenlied - Oberkärntner Sextett
TTITLE4=Polka mit Pfiff - Oberkärntner Sextett
TTITLE5=Mein Tagebuch - Oberkärntner Sextett
TTITLE6=Froh in den Tag - Oberkärntner Sextett
TTITLE7=Raspatanz - Oberkärntner Sextett
TTITLE8=Verspielte Klarinette - Oberkärntner Sextett
TTITLE9=Volksliederpotpourri - Oberkärntner Sextett
TTITLE10=Der fidele Bassist - Oberkärntner Sextett
TTITLE11=Musik als Geschenk - Oberkärntner Sextett
TTITLE12=Rundflug - Oberkärntner Sextett
TTITLE13=Hochzeitstag - Oberkärntner Sextett
TTITLE14=Gemütlich beim Wein - Oberkärntner Sextett
TTITLE15=Unsere Alpenwelt - Oberkärntner Sextett
TTITLE16=Frisch und Froh - Oberkärntner Sextett
TTITLE17=Urlaub im Alpbachtal - Oberkärntner Sextett
TTITLE18=Achterbahn - Oberkärntner Sextett
TTITLE19=Schon seit vielen Jahren - Oberkärntner Sextett
TTITLE20=Schöne Aussicht - Oberkärntner Sextett
TTITLE21=Oba narrisch - Oberkärntner Sextett
TTITLE22=Oberkärntner Melodie - Oberkärntner Sextett
TTITLE23=Wenn die Sonne erwacht in den Bergen - Obervellacher Buam
TTITLE24=Tränen der Liebe - Obervellacher Buam
TTITLE25=Kärntner Harmonikapolka - Obervellacher Buam
TTITLE26=Unser Murgel beim Bundesheer - Obervellacher Buam
TTITLE27=Gruß am Seltz - Obervellacher Buam
TTITLE28=Auf Wiedersehen - Obervellacher Buam
EXTD=
EXTT0=
EXTT1=
EXTT2=
EXTT3=
EXTT4=
EXTT5=
EXTT6=
EXTT7=
EXTT8=
EXTT9=
EXTT10=
EXTT11=
EXTT12=
EXTT13=
EXTT14=
EXTT15=
EXTT16=
EXTT17=
EXTT18=
EXTT19=
EXTT20=
EXTT21=
EXTT22=
EXTT23=
EXTT24=
EXTT25=
EXTT26=
EXTT27=
EXTT28=
PLAYORDER=
